<svg width="118" height="33" viewBox="0 0 118 33" fill="none" xmlns="http://www.w3.org/2000/svg">
<g clip-path="url(#clip0_24_17)">
<path d="M9.82891 31.8294C9.77141 32.1696 9.77139 32.1696 9.77138 32.1696H9.77091L9.76945 32.1693L9.76357 32.1684L9.74007 32.1644L9.64604 32.1485L9.26992 32.0849L7.76544 31.8305C6.4313 31.6049 4.43164 31.2667 1.76637 30.8158C1.32804 30.7892 0.961586 30.6088 0.720443 30.2525C0.489143 29.9107 0.403398 29.4507 0.411849 28.9221L0.411852 28.9189L0.411868 28.9014L0.411938 28.8314L0.412216 28.5515L0.413328 27.4319L0.417774 22.9537L0.435527 5.07854C0.373478 4.77579 0.399382 4.47047 0.590044 4.22087C0.776432 3.97686 1.06892 3.8551 1.38811 3.80145L1.39326 3.79971L1.4901 3.76703L1.87743 3.63636C2.22173 3.52022 2.7382 3.346 3.4268 3.11375C4.80403 2.64926 6.86992 1.9526 9.62455 1.02397L9.69566 1L9.7703 1.00773L9.73476 1.3509C9.7703 1.00773 9.77026 1.00773 9.7703 1.00773L9.77051 1.00775L9.77113 1.00782L9.77362 1.00808L9.78355 1.00911L9.82331 1.01322L9.98235 1.0297L10.6185 1.0956L13.1633 1.3592L23.3383 2.41318C23.5966 2.43378 23.9786 2.50336 24.3272 2.69424C24.6867 2.89114 25.0241 3.22724 25.1219 3.7661L25.1254 3.78489L25.1266 3.80393C25.1606 4.29373 25.1767 7.09948 25.2089 12.6959C25.2325 16.7696 25.2643 22.3221 25.3179 29.5364C25.3324 29.9976 25.2707 30.4047 25.0918 30.7205C24.9017 31.0558 24.5974 31.2551 24.2147 31.3132L24.1993 31.3155L24.1835 31.3164C19.4053 31.6024 15.8218 31.8169 13.4328 31.9597C12.2384 32.0311 11.3425 32.0846 10.7453 32.1203L10.0734 32.1605L9.90546 32.1706L9.86348 32.1731L9.85298 32.1736L9.85036 32.1739H9.8497H9.84953C9.8495 32.1739 9.84947 32.1739 9.82891 31.8294ZM9.82891 31.8294L9.77138 32.1696L9.8102 32.1762L9.84953 32.1739L9.82891 31.8294Z" fill="#5A3D2B"/>
<path d="M9.82891 31.8294C9.77141 32.1696 9.77139 32.1696 9.77138 32.1696M9.82891 31.8294C9.84947 32.1739 9.8495 32.1739 9.84953 32.1739M9.82891 31.8294L9.77138 32.1696M9.82891 31.8294L9.84953 32.1739M9.77138 32.1696H9.77091L9.76945 32.1693L9.76357 32.1684L9.74007 32.1644L9.64604 32.1485L9.26992 32.0849L7.76544 31.8305C6.4313 31.6049 4.43164 31.2667 1.76637 30.8158C1.32804 30.7892 0.961586 30.6088 0.720443 30.2525C0.489143 29.9107 0.403398 29.4507 0.411849 28.9221L0.411852 28.9189L0.411868 28.9014L0.411938 28.8314L0.412216 28.5515L0.413328 27.4319L0.417774 22.9537L0.435527 5.07854C0.373478 4.77579 0.399382 4.47047 0.590044 4.22087C0.776432 3.97686 1.06892 3.8551 1.38811 3.80145L1.39326 3.79971L1.4901 3.76703L1.87743 3.63636C2.22173 3.52022 2.7382 3.346 3.4268 3.11375C4.80403 2.64926 6.86992 1.9526 9.62455 1.02397L9.69566 1L9.7703 1.00773M9.77138 32.1696L9.8102 32.1762L9.84953 32.1739M9.7703 1.00773L9.73476 1.3509C9.7703 1.00773 9.77026 1.00773 9.7703 1.00773ZM9.7703 1.00773L9.77051 1.00775L9.77113 1.00782L9.77362 1.00808L9.78355 1.00911L9.82331 1.01322L9.98235 1.0297L10.6185 1.0956L13.1633 1.3592L23.3383 2.41318C23.5966 2.43378 23.9786 2.50336 24.3272 2.69424C24.6867 2.89114 25.0241 3.22724 25.1219 3.7661L25.1254 3.78489L25.1266 3.80393C25.1606 4.29373 25.1767 7.09948 25.2089 12.6959C25.2325 16.7696 25.2643 22.3221 25.3179 29.5364C25.3324 29.9976 25.2707 30.4047 25.0918 30.7205C24.9017 31.0558 24.5974 31.2551 24.2147 31.3132L24.1993 31.3155L24.1835 31.3164C19.4053 31.6024 15.8218 31.8169 13.4328 31.9597C12.2384 32.0311 11.3425 32.0846 10.7453 32.1203L10.0734 32.1605L9.90546 32.1706L9.86348 32.1731L9.85298 32.1736L9.85036 32.1739H9.8497H9.84953" stroke="white" stroke-width="0.69"/>
<path fill-rule="evenodd" clip-rule="evenodd" d="M24.3555 28.3565C24.2391 12.6008 24.1809 5.695 24.1809 4.72254C24.081 3.832 23.2487 3.77164 22.8246 3.73929C14.5086 2.87751 10.3514 2.44698 10.3514 2.44698C10.4089 21.1208 10.4384 30.4574 10.4384 30.4574C10.4384 30.4574 14.8292 30.1951 23.6117 29.6696C24.1334 29.5898 24.3821 29.1528 24.3555 28.3565Z" fill="#B8DDE1"/>
<path fill-rule="evenodd" clip-rule="evenodd" d="M17.3369 5.19047C14.7947 5.19047 12.7334 7.56091 12.7334 10.4841C12.7334 13.4072 14.7947 15.777 17.3369 15.777C19.8792 15.777 21.9406 13.4072 21.9406 10.4841C21.9406 7.56091 19.8792 5.19047 17.3369 5.19047Z" fill="#5A3D2B"/>
<path fill-rule="evenodd" clip-rule="evenodd" d="M17.3369 6.57909C15.4611 6.57909 13.9409 8.3271 13.9409 10.4841C13.9409 12.6403 15.4611 14.389 17.3369 14.389C19.2129 14.389 20.7331 12.6403 20.7331 10.4841C20.7331 8.3271 19.2129 6.57909 17.3369 6.57909Z" fill="#FFE28A"/>
<path fill-rule="evenodd" clip-rule="evenodd" d="M17.3369 8.66992C16.4659 8.66992 15.7593 9.48211 15.7593 10.484C15.7593 11.486 16.4659 12.2974 17.3369 12.2974C18.2081 12.2974 18.9146 11.486 18.9146 10.484C18.9146 9.48211 18.2081 8.66992 17.3369 8.66992Z" fill="#E5771E"/>
<path fill-rule="evenodd" clip-rule="evenodd" d="M17.3369 17.8304C14.7947 17.8304 12.7334 20.2009 12.7334 23.124C12.7334 26.0471 14.7947 28.4168 17.3369 28.4168C19.8792 28.4168 21.9406 26.0471 21.9406 23.124C21.9406 20.2009 19.8792 17.8304 17.3369 17.8304Z" fill="#5A3D2B"/>
<path fill-rule="evenodd" clip-rule="evenodd" d="M17.3369 19.219C15.4611 19.219 13.9409 20.9677 13.9409 23.124C13.9409 25.2809 15.4611 27.029 17.3369 27.029C19.2129 27.029 20.7331 25.2809 20.7331 23.124C20.7331 20.9677 19.2129 19.219 17.3369 19.219Z" fill="#FFE28A"/>
<path fill-rule="evenodd" clip-rule="evenodd" d="M17.3369 21.3098C16.4659 21.3098 15.7593 22.1221 15.7593 23.124C15.7593 24.1259 16.4659 24.9374 17.3369 24.9374C18.2081 24.9374 18.9146 24.1259 18.9146 23.124C18.9146 22.1221 18.2081 21.3098 17.3369 21.3098Z" fill="#E5771E"/>
<path fill-rule="evenodd" clip-rule="evenodd" d="M0.756845 28.9249C0.756845 28.9249 0.764751 20.9635 0.780564 5.04168C0.661969 4.52777 0.89197 4.22661 1.47129 4.13749C1.47129 4.13749 4.22553 3.20814 9.73476 1.35089C9.79728 21.67 9.82891 31.8294 9.82891 31.8294C9.82891 31.8294 7.15444 31.3773 1.80478 30.4725C1.08891 30.4373 0.740313 29.9212 0.756845 28.9249Z" fill="#E5771E"/>
<path d="M41.684 16.14C40.9467 16.14 40.2653 16.0187 39.64 15.776C39.024 15.524 38.4873 15.174 38.03 14.726C37.5727 14.2687 37.218 13.732 36.966 13.116C36.7233 12.4907 36.602 11.8047 36.602 11.058C36.602 10.33 36.7327 9.658 36.994 9.042C37.2553 8.426 37.6147 7.894 38.072 7.446C38.5387 6.98867 39.0847 6.634 39.71 6.382C40.3447 6.13 41.0353 6.004 41.782 6.004C42.2487 6.004 42.706 6.06467 43.154 6.186C43.602 6.30733 44.0173 6.48933 44.4 6.732C44.792 6.96533 45.128 7.24533 45.408 7.572L43.952 9.238C43.756 9.03267 43.546 8.85533 43.322 8.706C43.1073 8.54733 42.8693 8.426 42.608 8.342C42.3467 8.258 42.0667 8.216 41.768 8.216C41.3947 8.216 41.04 8.286 40.704 8.426C40.3773 8.55667 40.088 8.748 39.836 9C39.5933 9.24267 39.402 9.54133 39.262 9.896C39.122 10.2507 39.052 10.6473 39.052 11.086C39.052 11.5153 39.122 11.9073 39.262 12.262C39.402 12.6073 39.598 12.906 39.85 13.158C40.102 13.41 40.4053 13.6013 40.76 13.732C41.124 13.8627 41.5253 13.928 41.964 13.928C42.2627 13.928 42.5473 13.886 42.818 13.802C43.0887 13.718 43.336 13.606 43.56 13.466C43.7933 13.3167 43.9987 13.1487 44.176 12.962L45.324 14.782C45.0907 15.0433 44.778 15.2767 44.386 15.482C44.0033 15.6873 43.574 15.8507 43.098 15.972C42.6313 16.084 42.16 16.14 41.684 16.14ZM50.2147 16.14C49.44 16.14 48.7494 15.972 48.1427 15.636C47.5454 15.3 47.0694 14.8427 46.7147 14.264C46.3694 13.6853 46.1967 13.0227 46.1967 12.276C46.1967 11.5293 46.3694 10.8667 46.7147 10.288C47.0694 9.70933 47.5454 9.252 48.1427 8.916C48.7494 8.58 49.44 8.412 50.2147 8.412C50.9894 8.412 51.6754 8.58 52.2727 8.916C52.8794 9.252 53.3554 9.70933 53.7007 10.288C54.046 10.8667 54.2187 11.5293 54.2187 12.276C54.2187 13.0227 54.046 13.6853 53.7007 14.264C53.3554 14.8427 52.8794 15.3 52.2727 15.636C51.6754 15.972 50.9894 16.14 50.2147 16.14ZM50.2147 14.208C50.5507 14.208 50.8494 14.124 51.1107 13.956C51.372 13.788 51.5774 13.5593 51.7267 13.27C51.876 12.9807 51.946 12.6493 51.9367 12.276C51.946 11.9027 51.876 11.5713 51.7267 11.282C51.5774 10.9833 51.372 10.75 51.1107 10.582C50.8494 10.414 50.5507 10.33 50.2147 10.33C49.8787 10.33 49.5754 10.414 49.3047 10.582C49.0434 10.75 48.838 10.9833 48.6887 11.282C48.5394 11.5713 48.4694 11.9027 48.4787 12.276C48.4694 12.6493 48.5394 12.9807 48.6887 13.27C48.838 13.5593 49.0434 13.788 49.3047 13.956C49.5754 14.124 49.8787 14.208 50.2147 14.208ZM55.6835 16V8.566H57.8115L57.9095 10.988L57.4895 10.526C57.6015 10.1247 57.7835 9.76533 58.0355 9.448C58.2968 9.13067 58.6001 8.87867 58.9455 8.692C59.2908 8.50533 59.6595 8.412 60.0515 8.412C60.2195 8.412 60.3735 8.426 60.5135 8.454C60.6628 8.482 60.7981 8.51467 60.9195 8.552L60.3035 11.03C60.2008 10.9647 60.0608 10.9133 59.8835 10.876C59.7155 10.8293 59.5381 10.806 59.3515 10.806C59.1461 10.806 58.9548 10.8433 58.7775 10.918C58.6001 10.9833 58.4508 11.0813 58.3295 11.212C58.2081 11.3427 58.1101 11.4967 58.0355 11.674C57.9701 11.8513 57.9375 12.052 57.9375 12.276V16H55.6835ZM65.0338 16L61.9258 8.566H64.4038L66.2518 14.124L65.7058 14.18L67.6098 8.566H70.0598L66.7978 16H65.0338ZM73.7673 16.126C73.142 16.126 72.582 15.9627 72.0873 15.636C71.602 15.3 71.2146 14.8427 70.9253 14.264C70.636 13.676 70.4913 13.0133 70.4913 12.276C70.4913 11.52 70.636 10.8527 70.9253 10.274C71.2146 9.69533 71.6113 9.24267 72.1153 8.916C72.6193 8.58 73.1933 8.412 73.8373 8.412C74.192 8.412 74.514 8.46333 74.8033 8.566C75.102 8.66867 75.3633 8.81333 75.5873 9C75.8113 9.17733 76.0026 9.38733 76.1613 9.63C76.32 9.86333 76.4366 10.1153 76.5113 10.386L76.0493 10.33V8.566H78.2753V16H76.0073V14.208L76.5113 14.194C76.4366 14.4553 76.3153 14.7027 76.1473 14.936C75.9793 15.1693 75.774 15.3747 75.5313 15.552C75.2886 15.7293 75.018 15.8693 74.7193 15.972C74.4206 16.0747 74.1033 16.126 73.7673 16.126ZM74.3833 14.236C74.7286 14.236 75.0273 14.1567 75.2793 13.998C75.5313 13.8393 75.7273 13.6153 75.8673 13.326C76.0073 13.0273 76.0773 12.6773 76.0773 12.276C76.0773 11.8747 76.0073 11.5293 75.8673 11.24C75.7273 10.9413 75.5313 10.7127 75.2793 10.554C75.0273 10.386 74.7286 10.302 74.3833 10.302C74.0473 10.302 73.7533 10.386 73.5013 10.554C73.2586 10.7127 73.0673 10.9413 72.9273 11.24C72.7873 11.5293 72.7173 11.8747 72.7173 12.276C72.7173 12.6773 72.7873 13.0273 72.9273 13.326C73.0673 13.6153 73.2586 13.8393 73.5013 13.998C73.7533 14.1567 74.0473 14.236 74.3833 14.236ZM80.2658 16V5.64H82.5058V16H80.2658ZM84.5178 16V5.64H86.7578V16H84.5178ZM88.8817 16V8.566H91.1217V16H88.8817ZM90.0017 7.096C89.5817 7.096 89.2504 6.998 89.0077 6.802C88.7744 6.59667 88.6577 6.30733 88.6577 5.934C88.6577 5.598 88.7791 5.32267 89.0217 5.108C89.2644 4.89333 89.5911 4.786 90.0017 4.786C90.4217 4.786 90.7484 4.88867 90.9817 5.094C91.2151 5.29 91.3317 5.57 91.3317 5.934C91.3317 6.27933 91.2104 6.55933 90.9677 6.774C90.7344 6.98867 90.4124 7.096 90.0017 7.096ZM95.7324 16.14C95.0044 16.14 94.3604 16.0233 93.8004 15.79C93.2498 15.5567 92.8111 15.244 92.4844 14.852L93.8424 13.676C94.1318 13.9653 94.4584 14.18 94.8224 14.32C95.1864 14.4507 95.5318 14.516 95.8584 14.516C95.9891 14.516 96.1058 14.502 96.2084 14.474C96.3111 14.446 96.3951 14.4087 96.4604 14.362C96.5351 14.306 96.5911 14.2453 96.6284 14.18C96.6658 14.1053 96.6844 14.0213 96.6844 13.928C96.6844 13.7413 96.6004 13.5967 96.4324 13.494C96.3484 13.4473 96.2084 13.3913 96.0124 13.326C95.8164 13.2607 95.5644 13.186 95.2564 13.102C94.8178 12.99 94.4351 12.8593 94.1084 12.71C93.7911 12.5513 93.5298 12.3693 93.3244 12.164C93.1378 11.968 92.9931 11.7533 92.8904 11.52C92.7878 11.2773 92.7364 11.0067 92.7364 10.708C92.7364 10.3627 92.8158 10.05 92.9744 9.77C93.1424 9.49 93.3618 9.24733 93.6324 9.042C93.9124 8.83667 94.2298 8.68267 94.5844 8.58C94.9484 8.468 95.3218 8.412 95.7044 8.412C96.1151 8.412 96.5071 8.45867 96.8804 8.552C97.2538 8.64533 97.5991 8.776 97.9164 8.944C98.2431 9.112 98.5324 9.31267 98.7844 9.546L97.6084 10.862C97.4404 10.7033 97.2491 10.5633 97.0344 10.442C96.8291 10.3113 96.6144 10.2087 96.3904 10.134C96.1664 10.0593 95.9611 10.022 95.7744 10.022C95.6344 10.022 95.5084 10.036 95.3964 10.064C95.2938 10.0827 95.2051 10.12 95.1304 10.176C95.0558 10.2227 94.9998 10.2833 94.9624 10.358C94.9251 10.4233 94.9064 10.5027 94.9064 10.596C94.9064 10.6893 94.9298 10.778 94.9764 10.862C95.0324 10.946 95.1071 11.016 95.2004 11.072C95.2938 11.128 95.4431 11.1933 95.6484 11.268C95.8538 11.3333 96.1338 11.4173 96.4884 11.52C96.9271 11.6413 97.3051 11.7767 97.6224 11.926C97.9398 12.0753 98.1918 12.2527 98.3784 12.458C98.5278 12.6167 98.6398 12.8033 98.7144 13.018C98.7891 13.2233 98.8264 13.4473 98.8264 13.69C98.8264 14.166 98.6911 14.5907 98.4204 14.964C98.1591 15.328 97.7951 15.6173 97.3284 15.832C96.8618 16.0373 96.3298 16.14 95.7324 16.14Z" fill="#E5771E"/>
<path d="M36.88 29V22H38.4L40.95 26.15L39.86 26.14L42.44 22H43.9V29H42.25V26.82C42.25 26.22 42.2633 25.68 42.29 25.2C42.3233 24.72 42.3767 24.2433 42.45 23.77L42.64 24.29L40.7 27.3H40.04L38.14 24.31L38.33 23.77C38.4033 24.2167 38.4533 24.6767 38.48 25.15C38.5133 25.6167 38.53 26.1733 38.53 26.82V29H36.88ZM47.2993 29.11C46.906 29.11 46.5693 29.0267 46.2893 28.86C46.016 28.6867 45.8026 28.44 45.6493 28.12C45.5026 27.8 45.4293 27.4167 45.4293 26.97V23.69H47.0393V26.75C47.0393 26.9633 47.0726 27.1467 47.1393 27.3C47.206 27.4533 47.306 27.5733 47.4393 27.66C47.5726 27.74 47.7326 27.78 47.9193 27.78C48.0593 27.78 48.186 27.7567 48.2993 27.71C48.4193 27.6633 48.5193 27.6 48.5993 27.52C48.686 27.4333 48.7526 27.3367 48.7993 27.23C48.846 27.1167 48.8693 26.9933 48.8693 26.86V23.69H50.4793V29H48.9693L48.8993 27.91L49.1993 27.79C49.1193 28.0433 48.986 28.27 48.7993 28.47C48.6126 28.6633 48.3893 28.82 48.1293 28.94C47.8693 29.0533 47.5926 29.11 47.2993 29.11ZM53.6953 29.1C53.1753 29.1 52.7153 29.0167 52.3153 28.85C51.922 28.6833 51.6086 28.46 51.3753 28.18L52.3453 27.34C52.552 27.5467 52.7853 27.7 53.0453 27.8C53.3053 27.8933 53.552 27.94 53.7853 27.94C53.8786 27.94 53.962 27.93 54.0353 27.91C54.1086 27.89 54.1686 27.8633 54.2153 27.83C54.2686 27.79 54.3086 27.7467 54.3353 27.7C54.362 27.6467 54.3753 27.5867 54.3753 27.52C54.3753 27.3867 54.3153 27.2833 54.1953 27.21C54.1353 27.1767 54.0353 27.1367 53.8953 27.09C53.7553 27.0433 53.5753 26.99 53.3553 26.93C53.042 26.85 52.7686 26.7567 52.5353 26.65C52.3086 26.5367 52.122 26.4067 51.9753 26.26C51.842 26.12 51.7386 25.9667 51.6653 25.8C51.592 25.6267 51.5553 25.4333 51.5553 25.22C51.5553 24.9733 51.612 24.75 51.7253 24.55C51.8453 24.35 52.002 24.1767 52.1953 24.03C52.3953 23.8833 52.622 23.7733 52.8753 23.7C53.1353 23.62 53.402 23.58 53.6753 23.58C53.9686 23.58 54.2486 23.6133 54.5153 23.68C54.782 23.7467 55.0286 23.84 55.2553 23.96C55.4886 24.08 55.6953 24.2233 55.8753 24.39L55.0353 25.33C54.9153 25.2167 54.7786 25.1167 54.6253 25.03C54.4786 24.9367 54.3253 24.8633 54.1653 24.81C54.0053 24.7567 53.8586 24.73 53.7253 24.73C53.6253 24.73 53.5353 24.74 53.4553 24.76C53.382 24.7733 53.3186 24.8 53.2653 24.84C53.212 24.8733 53.172 24.9167 53.1453 24.97C53.1186 25.0167 53.1053 25.0733 53.1053 25.14C53.1053 25.2067 53.122 25.27 53.1553 25.33C53.1953 25.39 53.2486 25.44 53.3153 25.48C53.382 25.52 53.4886 25.5667 53.6353 25.62C53.782 25.6667 53.982 25.7267 54.2353 25.8C54.5486 25.8867 54.8186 25.9833 55.0453 26.09C55.272 26.1967 55.452 26.3233 55.5853 26.47C55.692 26.5833 55.772 26.7167 55.8253 26.87C55.8786 27.0167 55.9053 27.1767 55.9053 27.35C55.9053 27.69 55.8086 27.9933 55.6153 28.26C55.4286 28.52 55.1686 28.7267 54.8353 28.88C54.502 29.0267 54.122 29.1 53.6953 29.1ZM56.9465 29V23.69H58.5465V29H56.9465ZM57.7465 22.64C57.4465 22.64 57.2098 22.57 57.0365 22.43C56.8698 22.2833 56.7865 22.0767 56.7865 21.81C56.7865 21.57 56.8732 21.3733 57.0465 21.22C57.2198 21.0667 57.4532 20.99 57.7465 20.99C58.0465 20.99 58.2798 21.0633 58.4465 21.21C58.6132 21.35 58.6965 21.55 58.6965 21.81C58.6965 22.0567 58.6098 22.2567 58.4365 22.41C58.2698 22.5633 58.0398 22.64 57.7465 22.64ZM62.3798 29.1C61.8665 29.1 61.4065 28.98 60.9998 28.74C60.5932 28.5 60.2698 28.1733 60.0298 27.76C59.7965 27.34 59.6798 26.8667 59.6798 26.34C59.6798 25.8133 59.7965 25.3433 60.0298 24.93C60.2698 24.51 60.5932 24.18 60.9998 23.94C61.4065 23.7 61.8665 23.58 62.3798 23.58C62.8532 23.58 63.2865 23.6633 63.6798 23.83C64.0798 23.9967 64.3965 24.23 64.6298 24.53L63.7598 25.57C63.6665 25.4633 63.5565 25.3633 63.4298 25.27C63.3032 25.1767 63.1632 25.1033 63.0098 25.05C62.8565 24.9967 62.6965 24.97 62.5298 24.97C62.2765 24.97 62.0532 25.03 61.8598 25.15C61.6665 25.2633 61.5165 25.4233 61.4098 25.63C61.3032 25.8367 61.2498 26.0733 61.2498 26.34C61.2498 26.5933 61.3032 26.8233 61.4098 27.03C61.5232 27.2367 61.6765 27.4 61.8698 27.52C62.0632 27.64 62.2832 27.7 62.5298 27.7C62.7032 27.7 62.8632 27.68 63.0098 27.64C63.1565 27.5933 63.2898 27.5267 63.4098 27.44C63.5365 27.3533 63.6532 27.2467 63.7598 27.12L64.6198 28.17C64.3932 28.4567 64.0765 28.6833 63.6698 28.85C63.2698 29.0167 62.8398 29.1 62.3798 29.1ZM72.0522 29.1C71.5255 29.1 71.0389 29.0133 70.5922 28.84C70.1522 28.66 69.7689 28.41 69.4422 28.09C69.1155 27.7633 68.8622 27.38 68.6822 26.94C68.5089 26.4933 68.4222 26.0033 68.4222 25.47C68.4222 24.95 68.5155 24.47 68.7022 24.03C68.8889 23.59 69.1455 23.21 69.4722 22.89C69.8055 22.5633 70.1955 22.31 70.6422 22.13C71.0955 21.95 71.5889 21.86 72.1222 21.86C72.4555 21.86 72.7822 21.9033 73.1022 21.99C73.4222 22.0767 73.7189 22.2067 73.9922 22.38C74.2722 22.5467 74.5122 22.7467 74.7122 22.98L73.6722 24.17C73.5322 24.0233 73.3822 23.8967 73.2222 23.79C73.0689 23.6767 72.8989 23.59 72.7122 23.53C72.5255 23.47 72.3255 23.44 72.1122 23.44C71.8455 23.44 71.5922 23.49 71.3522 23.59C71.1189 23.6833 70.9122 23.82 70.7322 24C70.5589 24.1733 70.4222 24.3867 70.3222 24.64C70.2222 24.8933 70.1722 25.1767 70.1722 25.49C70.1722 25.7967 70.2222 26.0767 70.3222 26.33C70.4222 26.5767 70.5622 26.79 70.7422 26.97C70.9222 27.15 71.1389 27.2867 71.3922 27.38C71.6522 27.4733 71.9389 27.52 72.2522 27.52C72.4655 27.52 72.6689 27.49 72.8622 27.43C73.0555 27.37 73.2322 27.29 73.3922 27.19C73.5589 27.0833 73.7055 26.9633 73.8322 26.83L74.6522 28.13C74.4855 28.3167 74.2622 28.4833 73.9822 28.63C73.7089 28.7767 73.4022 28.8933 73.0622 28.98C72.7289 29.06 72.3922 29.1 72.0522 29.1ZM78.1455 29.1C77.5922 29.1 77.0989 28.98 76.6655 28.74C76.2389 28.5 75.8989 28.1733 75.6455 27.76C75.3989 27.3467 75.2755 26.8733 75.2755 26.34C75.2755 25.8067 75.3989 25.3333 75.6455 24.92C75.8989 24.5067 76.2389 24.18 76.6655 23.94C77.0989 23.7 77.5922 23.58 78.1455 23.58C78.6989 23.58 79.1889 23.7 79.6155 23.94C80.0489 24.18 80.3889 24.5067 80.6355 24.92C80.8822 25.3333 81.0055 25.8067 81.0055 26.34C81.0055 26.8733 80.8822 27.3467 80.6355 27.76C80.3889 28.1733 80.0489 28.5 79.6155 28.74C79.1889 28.98 78.6989 29.1 78.1455 29.1ZM78.1455 27.72C78.3855 27.72 78.5989 27.66 78.7855 27.54C78.9722 27.42 79.1189 27.2567 79.2255 27.05C79.3322 26.8433 79.3822 26.6067 79.3755 26.34C79.3822 26.0733 79.3322 25.8367 79.2255 25.63C79.1189 25.4167 78.9722 25.25 78.7855 25.13C78.5989 25.01 78.3855 24.95 78.1455 24.95C77.9055 24.95 77.6889 25.01 77.4955 25.13C77.3089 25.25 77.1622 25.4167 77.0555 25.63C76.9489 25.8367 76.8989 26.0733 76.9055 26.34C76.8989 26.6067 76.9489 26.8433 77.0555 27.05C77.1622 27.2567 77.3089 27.42 77.4955 27.54C77.6889 27.66 77.9055 27.72 78.1455 27.72ZM82.0618 29V21.6H83.6618V29H82.0618ZM85.0989 29V21.6H86.6989V29H85.0989ZM90.5584 29.1C89.9717 29.1 89.4617 28.9833 89.0284 28.75C88.595 28.51 88.2584 28.1867 88.0184 27.78C87.7784 27.3667 87.6584 26.8967 87.6584 26.37C87.6584 25.9633 87.725 25.59 87.8584 25.25C87.9917 24.91 88.1784 24.6167 88.4184 24.37C88.6584 24.1167 88.9417 23.9233 89.2684 23.79C89.6017 23.65 89.965 23.58 90.3584 23.58C90.7317 23.58 91.0717 23.6467 91.3784 23.78C91.6917 23.9133 91.9617 24.1 92.1884 24.34C92.415 24.58 92.5884 24.8633 92.7084 25.19C92.8284 25.5167 92.8817 25.8733 92.8684 26.26L92.8584 26.69H88.6284L88.3984 25.79H91.5584L91.3884 25.98V25.78C91.375 25.6133 91.3217 25.4667 91.2284 25.34C91.1417 25.2067 91.025 25.1033 90.8784 25.03C90.7317 24.9567 90.565 24.92 90.3784 24.92C90.1184 24.92 89.895 24.9733 89.7084 25.08C89.5284 25.18 89.3917 25.33 89.2984 25.53C89.205 25.7233 89.1584 25.9633 89.1584 26.25C89.1584 26.5433 89.2184 26.8 89.3384 27.02C89.465 27.2333 89.645 27.4 89.8784 27.52C90.1184 27.64 90.4017 27.7 90.7284 27.7C90.955 27.7 91.155 27.6667 91.3284 27.6C91.5084 27.5333 91.7017 27.42 91.9084 27.26L92.6584 28.32C92.4517 28.5 92.2317 28.6467 91.9984 28.76C91.765 28.8733 91.525 28.9567 91.2784 29.01C91.0384 29.07 90.7984 29.1 90.5584 29.1ZM96.2177 29.1C95.7044 29.1 95.2444 28.98 94.8377 28.74C94.4311 28.5 94.1077 28.1733 93.8677 27.76C93.6344 27.34 93.5177 26.8667 93.5177 26.34C93.5177 25.8133 93.6344 25.3433 93.8677 24.93C94.1077 24.51 94.4311 24.18 94.8377 23.94C95.2444 23.7 95.7044 23.58 96.2177 23.58C96.6911 23.58 97.1244 23.6633 97.5177 23.83C97.9177 23.9967 98.2344 24.23 98.4677 24.53L97.5977 25.57C97.5044 25.4633 97.3944 25.3633 97.2677 25.27C97.1411 25.1767 97.0011 25.1033 96.8477 25.05C96.6944 24.9967 96.5344 24.97 96.3677 24.97C96.1144 24.97 95.8911 25.03 95.6977 25.15C95.5044 25.2633 95.3544 25.4233 95.2477 25.63C95.1411 25.8367 95.0877 26.0733 95.0877 26.34C95.0877 26.5933 95.1411 26.8233 95.2477 27.03C95.3611 27.2367 95.5144 27.4 95.7077 27.52C95.9011 27.64 96.1211 27.7 96.3677 27.7C96.5411 27.7 96.7011 27.68 96.8477 27.64C96.9944 27.5933 97.1277 27.5267 97.2477 27.44C97.3744 27.3533 97.4911 27.2467 97.5977 27.12L98.4577 28.17C98.2311 28.4567 97.9144 28.6833 97.5077 28.85C97.1077 29.0167 96.6777 29.1 96.2177 29.1ZM99.777 29V22.35H101.377V29H99.777ZM98.837 25.09V23.69H102.407V25.09H98.837ZM103.411 29V23.69H105.011V29H103.411ZM104.211 22.64C103.911 22.64 103.675 22.57 103.501 22.43C103.335 22.2833 103.251 22.0767 103.251 21.81C103.251 21.57 103.338 21.3733 103.511 21.22C103.685 21.0667 103.918 20.99 104.211 20.99C104.511 20.99 104.745 21.0633 104.911 21.21C105.078 21.35 105.161 21.55 105.161 21.81C105.161 22.0567 105.075 22.2567 104.901 22.41C104.735 22.5633 104.505 22.64 104.211 22.64ZM108.145 29L105.925 23.69H107.695L109.015 27.66L108.625 27.7L109.985 23.69H111.735L109.405 29H108.145ZM114.953 29.1C114.366 29.1 113.856 28.9833 113.423 28.75C112.99 28.51 112.653 28.1867 112.413 27.78C112.173 27.3667 112.053 26.8967 112.053 26.37C112.053 25.9633 112.12 25.59 112.253 25.25C112.386 24.91 112.573 24.6167 112.813 24.37C113.053 24.1167 113.336 23.9233 113.663 23.79C113.996 23.65 114.36 23.58 114.753 23.58C115.126 23.58 115.466 23.6467 115.773 23.78C116.086 23.9133 116.356 24.1 116.583 24.34C116.81 24.58 116.983 24.8633 117.103 25.19C117.223 25.5167 117.276 25.8733 117.263 26.26L117.253 26.69H113.023L112.793 25.79H115.953L115.783 25.98V25.78C115.77 25.6133 115.716 25.4667 115.623 25.34C115.536 25.2067 115.42 25.1033 115.273 25.03C115.126 24.9567 114.96 24.92 114.773 24.92C114.513 24.92 114.29 24.9733 114.103 25.08C113.923 25.18 113.786 25.33 113.693 25.53C113.6 25.7233 113.553 25.9633 113.553 26.25C113.553 26.5433 113.613 26.8 113.733 27.02C113.86 27.2333 114.04 27.4 114.273 27.52C114.513 27.64 114.796 27.7 115.123 27.7C115.35 27.7 115.55 27.6667 115.723 27.6C115.903 27.5333 116.096 27.42 116.303 27.26L117.053 28.32C116.846 28.5 116.626 28.6467 116.393 28.76C116.16 28.8733 115.92 28.9567 115.673 29.01C115.433 29.07 115.193 29.1 114.953 29.1Z" fill="#5caeb2"/>
</g>
<defs>
<clipPath id="clip0_24_17">
<rect width="118" height="33" fill="white"/>
</clipPath>
</defs>
</svg>
