<svg viewBox="0 0 232 232" fill="none" xmlns="http://www.w3.org/2000/svg">
  <!-- Speaker case background -->
  <path fill-rule="evenodd" clip-rule="evenodd" d="M71.224 226.38C70.8073 228.845 70.8072 228.845 70.8071 228.845L70.8064 228.845L70.8037 228.845L70.7931 228.843L70.7505 228.836L70.5802 228.807L69.8988 228.692L67.1733 228.231L56.2713 226.388C46.6036 224.753 32.1133 222.302 12.7998 219.035C9.62347 218.842 6.96801 217.535 5.2206 214.953C3.54451 212.476 2.92317 209.143 2.98441 205.312L2.98443 205.289L2.98455 205.162L2.98506 204.655L2.98707 202.627L2.99513 194.514L3.02735 162.063L3.15599 32.5329C2.70636 30.3391 2.89407 28.1266 4.27568 26.3179C5.62632 24.5497 7.74582 23.6674 10.0588 23.2786L10.0961 23.266L10.7978 23.0292L13.6046 22.0823C16.0995 21.2407 19.842 19.9783 24.8319 18.2953C34.8118 14.9294 49.782 9.88119 69.7431 3.15199L70.2584 2.97827L70.7993 3.0343L70.5417 5.521C70.7993 3.0343 70.7994 3.03432 70.7997 3.03434L70.8008 3.03446L70.8053 3.03492L70.8233 3.03679L70.8953 3.04425L71.1834 3.0741L72.3359 3.19348L76.9458 3.67102L95.3859 5.58118L169.118 13.2187C170.99 13.368 173.758 13.8722 176.284 15.2554C178.889 16.6822 181.334 19.1177 182.043 23.0225L182.068 23.1586L182.077 23.2966C182.323 26.8459 182.44 47.1774 182.673 87.7315C182.844 117.251 183.075 157.486 183.463 209.764C183.568 213.106 183.121 216.056 181.825 218.344C180.447 220.774 178.242 222.218 175.469 222.639L175.357 222.656L175.243 222.662C140.618 224.735 114.651 226.289 97.3393 227.324C88.6837 227.841 82.1922 228.229 77.8645 228.488L72.9959 228.779L71.7787 228.852L71.4745 228.87L71.3984 228.874L71.3794 228.876L71.3746 228.876L71.3734 228.876C71.3732 228.876 71.373 228.876 71.224 226.38ZM71.224 226.38L70.8073 228.845L71.0884 228.893L71.373 228.876L71.224 226.38Z" fill="#5A3D2B" stroke="white" stroke-width="5"/>
  
  <!-- Speaker front -->
  <path fill-rule="evenodd" clip-rule="evenodd" d="M176.489 201.214C175.646 87.0417 175.224 37 175.224 29.9532C174.5 23.5 168.469 23.0626 165.396 22.8282C105.135 16.5834 75.0103 13.4636 75.0103 13.4636C75.4269 148.781 75.6405 216.438 75.6405 216.438C75.6405 216.438 107.458 214.537 171.099 210.729C174.88 210.151 176.682 206.984 176.489 201.214Z" fill="#e5771e"/>
  
  <!-- Top speaker -->
  <circle cx="125.63" cy="71.7" r="40" fill="#5A3D2B"/>
  <circle cx="125.63" cy="71.7" r="30" fill="#ffe28a"/>
  <circle cx="125.63" cy="71.7" r="15" fill="#e5771e"/>
  
  <!-- Bottom speaker -->
  <circle cx="125.63" cy="163.3" r="40" fill="#5A3D2B"/>
  <circle cx="125.63" cy="163.3" r="30" fill="#ffe28a"/>
  <circle cx="125.63" cy="163.3" r="15" fill="#e5771e"/>
  
  <!-- Side handle -->
  <path fill-rule="evenodd" clip-rule="evenodd" d="M5.48439 205.333C5.48439 205.333 5.54168 147.641 5.65626 32.2658C4.79688 28.5418 6.46355 26.3595 10.6615 25.7137C10.6615 25.7137 30.6198 18.9793 70.5417 5.521C70.9948 152.761 71.224 226.38 71.224 226.38C71.224 226.38 51.8438 223.104 13.0781 216.547C7.89064 216.292 5.36459 212.552 5.48439 205.333Z" fill="#e5771e"/>
</svg>